<?xml version="1.0" encoding="utf-8"?>
<!-- Generator: Adobe Illustrator 15.0.0, SVG Export Plug-In . SVG Version: 6.00 Build 0)  -->
<!DOCTYPE svg PUBLIC "-//W3C//DTD SVG 1.1//EN" "http://www.w3.org/Graphics/SVG/1.1/DTD/svg11.dtd">
<svg version="1.1" id="Layer_1" xmlns="http://www.w3.org/2000/svg" xmlns:xlink="http://www.w3.org/1999/xlink" x="0px" y="0px"
	 width="612px" height="792px" viewBox="0 0 612 792" enable-background="new 0 0 612 792" xml:space="preserve">
<path opacity="0.2" fill="#231F20" enable-background="new    " d="M497.25,558.562c0,10.519-8.606,19.125-19.125,19.125h-344.25
	c-10.519,0-19.125-8.606-19.125-19.125V271.688c0-10.519,8.606-19.125,19.125-19.125h344.25c10.519,0,19.125,8.606,19.125,19.125
	V558.562z"/>
<path fill="#4F5D73" d="M497.25,539.438c0,10.519-8.606,19.125-19.125,19.125h-344.25c-10.519,0-19.125-8.606-19.125-19.125V252.562
	c0-10.519,8.606-19.125,19.125-19.125h344.25c10.519,0,19.125,8.606,19.125,19.125V539.438z"/>
<path fill="#E0E0D1" d="M459,443.812c0,10.519-8.606,19.125-19.125,19.125h-267.75c-10.519,0-19.125-8.606-19.125-19.125V289.856
	c0-10.519,8.606-19.125,19.125-19.125h267.75c10.519,0,19.125,8.606,19.125,19.125V443.812z"/>
<g opacity="0.2">
	<path fill="#231F20" d="M439.875,270.731h-267.75c-10.519,0-19.125,8.606-19.125,19.125v10.519
		c0-10.519,8.606-19.125,19.125-19.125h267.75c10.519,0,19.125,8.606,19.125,19.125v-10.519
		C459,279.337,450.394,270.731,439.875,270.731z"/>
</g>
<path opacity="0.2" fill="#231F20" enable-background="new    " d="M191.25,520.312c0,10.519-8.606,19.125-19.125,19.125l0,0
	c-10.519,0-19.125-8.606-19.125-19.125l0,0c0-10.519,8.606-19.125,19.125-19.125l0,0C182.644,501.188,191.25,509.794,191.25,520.312
	L191.25,520.312z"/>
<path opacity="0.2" fill="#231F20" enable-background="new    " d="M459,520.312c0,10.519-8.606,19.125-19.125,19.125l0,0
	c-10.519,0-19.125-8.606-19.125-19.125l0,0c0-10.519,8.606-19.125,19.125-19.125l0,0C450.394,501.188,459,509.794,459,520.312
	L459,520.312z"/>
<path fill="#76C2AF" d="M191.25,510.75c0,10.519-8.606,19.125-19.125,19.125l0,0c-10.519,0-19.125-8.606-19.125-19.125l0,0
	c0-10.519,8.606-19.125,19.125-19.125l0,0C182.644,491.625,191.25,500.231,191.25,510.75L191.25,510.75z"/>
<path fill="#76C2AF" d="M459,510.75c0,10.519-8.606,19.125-19.125,19.125l0,0c-10.519,0-19.125-8.606-19.125-19.125l0,0
	c0-10.519,8.606-19.125,19.125-19.125l0,0C450.394,491.625,459,500.231,459,510.75L459,510.75z"/>
<path fill="#F5CF87" d="M239.062,520.312c0,5.737-3.825,9.562-9.562,9.562l0,0c-5.737,0-9.562-3.825-9.562-9.562v-19.125
	c0-5.737,3.825-9.562,9.562-9.562l0,0c5.737,0,9.562,3.825,9.562,9.562V520.312z"/>
<path fill="#F5CF87" d="M277.312,520.312c0,5.737-3.825,9.562-9.562,9.562l0,0c-5.737,0-9.562-3.825-9.562-9.562v-19.125
	c0-5.737,3.825-9.562,9.562-9.562l0,0c5.737,0,9.562,3.825,9.562,9.562V520.312z"/>
<path fill="#F5CF87" d="M353.812,520.312c0,5.737-3.825,9.562-9.562,9.562l0,0c-5.737,0-9.562-3.825-9.562-9.562v-19.125
	c0-5.737,3.825-9.562,9.562-9.562l0,0c5.737,0,9.562,3.825,9.562,9.562V520.312z"/>
<path fill="#F5CF87" d="M392.062,520.312c0,5.737-3.825,9.562-9.562,9.562l0,0c-5.737,0-9.562-3.825-9.562-9.562v-19.125
	c0-5.737,3.825-9.562,9.562-9.562l0,0c5.737,0,9.562,3.825,9.562,9.562V520.312z"/>
<path fill="#F5CF87" d="M315.562,520.312c0,5.737-3.825,9.562-9.562,9.562l0,0c-5.737,0-9.562-3.825-9.562-9.562v-19.125
	c0-5.737,3.825-9.562,9.562-9.562l0,0c5.737,0,9.562,3.825,9.562,9.562V520.312z"/>
<g opacity="0.2">
	<path fill="#231F20" d="M229.5,491.625c-5.737,0-9.562,3.825-9.562,9.562v9.562c0-5.737,3.825-9.562,9.562-9.562
		s9.562,3.825,9.562,9.562v-9.562C239.062,495.45,235.237,491.625,229.5,491.625z"/>
	<path fill="#231F20" d="M267.75,491.625c-5.737,0-9.562,3.825-9.562,9.562v9.562c0-5.737,3.825-9.562,9.562-9.562
		s9.562,3.825,9.562,9.562v-9.562C277.312,495.45,273.487,491.625,267.75,491.625z"/>
	<path fill="#231F20" d="M344.25,491.625c-5.737,0-9.562,3.825-9.562,9.562v9.562c0-5.737,3.825-9.562,9.562-9.562
		s9.562,3.825,9.562,9.562v-9.562C353.812,495.45,349.987,491.625,344.25,491.625z"/>
	<path fill="#231F20" d="M382.5,491.625c-5.737,0-9.562,3.825-9.562,9.562v9.562c0-5.737,3.825-9.562,9.562-9.562
		s9.562,3.825,9.562,9.562v-9.562C392.062,495.45,388.237,491.625,382.5,491.625z"/>
	<path fill="#231F20" d="M306,491.625c-5.737,0-9.562,3.825-9.562,9.562v9.562c0-5.737,3.825-9.562,9.562-9.562
		s9.562,3.825,9.562,9.562v-9.562C315.562,495.45,311.737,491.625,306,491.625z"/>
</g>
<g>
	<path opacity="0.2" fill="#FFFFFF" enable-background="new    " d="M459,443.812V289.856c0-10.519-8.606-19.125-19.125-19.125
		H243.844l110.925,192.206h85.106C450.394,462.938,459,454.331,459,443.812z"/>
</g>
</svg>
