<?xml version="1.0" ?><svg enable-background="new 0 0 515.91 728.5" height="512" id="Layer_1" version="1.1" viewBox="0 0 512.00003 512" width="512" xml:space="preserve" xmlns="http://www.w3.org/2000/svg" xmlns:cc="http://creativecommons.org/ns#" xmlns:dc="http://purl.org/dc/elements/1.1/" xmlns:inkscape="http://www.inkscape.org/namespaces/inkscape" xmlns:rdf="http://www.w3.org/1999/02/22-rdf-syntax-ns#" xmlns:sodipodi="http://sodipodi.sourceforge.net/DTD/sodipodi-0.dtd" xmlns:svg="http://www.w3.org/2000/svg"><defs id="defs7"/><g id="g7000" transform="translate(-3.7781161,-226.10491)"><path d="m -733.62329,72.267944 c 0,203.804876 -165.21649,369.021366 -369.02141,369.021366 -203.8048,0 -369.0213,-165.21649 -369.0213,-369.021366 0,-203.804874 165.2165,-369.021364 369.0213,-369.021364 203.80492,0 369.02141,165.21649 369.02141,369.021364 z" id="path5080" style="fill:#282828;fill-opacity:1;fill-rule:nonzero;stroke:none" transform="matrix(0.69372682,0,0,0.69372682,1024.7123,431.9707)"/><g id="g24429" style="fill:#ffffff;fill-opacity:1" transform="matrix(0.80208678,0,0,0.80208678,-576.65306,-293.67355)"><g id="g3096" style="fill:#ffffff;fill-opacity:1" transform="matrix(1.25,0,0,-1.25,1247.36,929.93166)"><path d="m 0,0 c -15.515,0 -28.053,-7.979 -34.655,-13.246 l 1.902,10.135 -38.435,0 -13.539,-62.71 40.182,0 6.863,36.491 c 3.355,4.268 8.928,9.765 15.411,9.763 10.591,-0.003 8.298,-8.452 7.425,-15.123 l -5.434,-30.157 39.177,-0.082 c 0,0 4.575,24.037 5.124,26.682 C 29.516,-11.926 23.15,0 0,0" id="path3098-6" style="fill:#ffffff;fill-opacity:1;fill-rule:nonzero;stroke:none"/></g><g id="g3100" style="fill:#ffffff;fill-opacity:1" transform="matrix(1.25,0,0,-1.25,1083.5844,947.71854)"><path d="m 0,0 c 13.975,0 9.608,-12.9 9.608,-12.9 l -24.023,0 c 0,0 0.438,12.9 14.415,12.9 m 45.421,-25.353 c 0,0 15.29,39.745 -41.052,39.745 -56.341,0 -60.709,-39.745 -60.709,-39.745 0,0 -6.988,-28.907 47.604,-28.907 54.594,0 52.412,21.348 52.412,21.348 l -40.181,0 c 0,0 -3.058,-8.448 -11.357,-8.448 -8.3,0 -13.539,3.11 -11.357,16.007 l 64.64,0 z" id="path3102" style="fill:#ffffff;fill-opacity:1;fill-rule:nonzero;stroke:none"/></g><g id="g3132" style="fill:#ffffff;fill-opacity:1" transform="matrix(1.25,0,0,-1.25,1070.715,901.02304)"><path d="M 0,0 -63.766,0 -99.885,-27.667 -120.98,0 l -51.098,0 39.936,-52.374 -79.681,-61.035 63.766,0 39.426,30.199 23.027,-30.199 51.098,0 L -76.373,-58.5 0,0 z" id="path3134" style="fill:#ffffff;fill-opacity:1;fill-rule:nonzero;stroke:none"/></g><g id="g3148" style="fill:#ffffff;fill-opacity:1" transform="matrix(1.25,0,0,-1.25,935.91042,1055.658)"><path d="m 0,0 c -13.3,0 -25.741,3.677 -36.371,10.059 l -2.306,-1.766 -0.68,-0.521 -0.856,0 -30.576,0 c 17.36,-19.493 42.635,-31.782 70.791,-31.782 28.156,0 53.43,12.289 70.789,31.782 l -38.56,0 C 22.562,2.814 11.613,0 0,0" id="path3150" style="fill:#ffffff;fill-opacity:1;fill-rule:nonzero;stroke:none"/></g><g id="g3156" style="fill:#ffffff;fill-opacity:1" transform="matrix(1.25,0,0,-1.25,847.45404,967.20104)"><path d="m 0,0 c 0,15.094 4.741,29.073 12.793,40.561 l -8.272,10.849 -3.096,4.06 5.106,0 20.321,0 c 12.068,9.566 27.317,15.295 43.913,15.295 16.597,0 31.846,-5.729 43.914,-15.295 l 0.164,0 32.75,0 C 130.377,79.275 102.391,94.777 70.767,94.777 18.423,94.777 -24.011,52.345 -24.011,0 c 0,-15.293 3.643,-29.726 10.076,-42.515 L 5.573,-27.572 C 1.985,-19.1 0,-9.782 0,0" id="path3158" style="fill:#ffffff;fill-opacity:1;fill-rule:nonzero;stroke:none"/></g><g id="g3160" style="fill:#ffffff;fill-opacity:1" transform="matrix(1.25,0,0,-1.25,1040.7298,937.12529)"><path d="M 0,0 C 2.285,1.249 4.598,2.308 6.904,3.191 6.144,5.721 5.295,8.209 4.336,10.645 L -15.777,-4.761 c 0.599,-2.117 1.098,-4.277 1.504,-6.469 C -10.559,-7.021 -5.723,-3.127 0,0" id="path3162" style="fill:#ffffff;fill-opacity:1;fill-rule:nonzero;stroke:none"/></g><g id="g3164" style="fill:#ffffff;fill-opacity:1" transform="matrix(1.25,0,0,-1.25,1017.233,1001.9557)"><path d="M 0,0 C -1.555,-3.634 -3.394,-7.118 -5.511,-10.408 L 9.724,-30.389 c 4.574,5.872 8.443,12.311 11.548,19.169 C 12.292,-9.184 4.766,-5.101 0,0" id="path3166" style="fill:#ffffff;fill-opacity:1;fill-rule:nonzero;stroke:none"/></g></g></g></svg>