<?xml version="1.0" encoding="utf-8"?>
<!-- Generator: Adobe Illustrator 15.0.0, SVG Export Plug-In . SVG Version: 6.00 Build 0)  -->
<!DOCTYPE svg PUBLIC "-//W3C//DTD SVG 1.1//EN" "http://www.w3.org/Graphics/SVG/1.1/DTD/svg11.dtd">
<svg version="1.1"
	 id="Layer_1" xmlns:svg="http://www.w3.org/2000/svg" xmlns:sodipodi="http://sodipodi.sourceforge.net/DTD/sodipodi-0.dtd" xmlns:rdf="http://www.w3.org/1999/02/22-rdf-syntax-ns#" xmlns:inkscape="http://www.inkscape.org/namespaces/inkscape" xmlns:dc="http://purl.org/dc/elements/1.1/" xmlns:cc="http://creativecommons.org/ns#"
	 xmlns="http://www.w3.org/2000/svg" xmlns:xlink="http://www.w3.org/1999/xlink" x="0px" y="0px" width="512px" height="512px"
	 viewBox="0 0 512 512" enable-background="new 0 0 512 512" xml:space="preserve">
<g id="g7000" transform="translate(-3.7781161,-226.10491)">
	<g id="g24429" transform="matrix(0.80208678,0,0,0.80208678,-576.65306,-293.67355)">
		<g id="g3096" transform="matrix(1.25,0,0,-1.25,1247.36,929.93166)">
			<path id="path3098-6" fill="#FFFFFF" d="M0,0c-15.515,0-28.053-7.979-34.656-13.246l1.902,10.135h-38.435L-84.727-65.82h40.182
				l6.863,36.491c3.355,4.268,8.928,9.765,15.411,9.763c10.591-0.003,8.298-8.452,7.425-15.123l-5.434-30.157l39.177-0.083
				c0,0,4.575,24.038,5.123,26.682C29.516-11.926,23.149,0,0,0"/>
		</g>
		<g id="g3100" transform="matrix(1.25,0,0,-1.25,1083.5844,947.71854)">
			<path id="path3102" fill="#FFFFFF" d="M0,0c13.974,0,9.608-12.9,9.608-12.9h-24.023C-14.416-12.9-13.977,0,0,0 M45.42-25.353
				c0,0,15.29,39.745-41.052,39.745c-56.34,0-60.709-39.745-60.709-39.745S-63.328-54.26-8.736-54.26
				c54.594,0,52.412,21.348,52.412,21.348H3.495c0,0-3.057-8.448-11.357-8.448c-8.3,0-13.539,3.11-11.357,16.007H45.42z"/>
		</g>
		<g id="g3132" transform="matrix(1.25,0,0,-1.25,1070.715,901.02304)">
			<path id="path3134" fill="#FFFFFF" d="M0,0h-63.766l-36.119-27.667L-120.98,0h-51.098l39.937-52.374l-79.682-61.035h63.766
				l39.426,30.199l23.027-30.199h51.098l-41.867,54.91L0,0z"/>
		</g>
		<g id="g3148" transform="matrix(1.25,0,0,-1.25,935.91042,1055.658)">
			<path id="path3150" fill="#FFFFFF" d="M0,0c-13.3,0-25.741,3.678-36.371,10.06l-2.306-1.767l-0.68-0.52h-0.856h-30.576
				C-53.429-11.722-28.154-24.01,0.002-24.01s53.43,12.288,70.789,31.782H32.23C22.562,2.815,11.613,0,0,0"/>
		</g>
		<g id="g3156" transform="matrix(1.25,0,0,-1.25,847.45404,967.20104)">
			<path id="path3158" fill="#FFFFFF" d="M-0.001,0c0,15.094,4.742,29.073,12.794,40.561L4.521,51.41l-3.096,4.06h5.107h20.321
				c12.067,9.566,27.316,15.295,43.913,15.295s31.846-5.729,43.914-15.295h0.164h32.75c-17.216,23.805-45.202,39.307-76.826,39.307
				C18.423,94.777-24.011,52.345-24.011,0c0-15.293,3.643-29.726,10.076-42.515L5.573-27.572C1.984-19.1-0.001-9.782-0.001,0"/>
		</g>
		<g id="g3160" transform="matrix(1.25,0,0,-1.25,1040.7298,937.12529)">
			<path id="path3162" fill="#FFFFFF" d="M0,0c2.285,1.249,4.598,2.308,6.904,3.191c-0.76,2.53-1.609,5.018-2.568,7.454
				L-15.777-4.761c0.599-2.117,1.098-4.277,1.504-6.469C-10.56-7.021-5.724-3.127,0,0"/>
		</g>
		<g id="g3164" transform="matrix(1.25,0,0,-1.25,1017.233,1001.9557)">
			<path id="path3166" fill="#FFFFFF" d="M0,0c-1.555-3.634-3.393-7.118-5.511-10.408L9.723-30.389
				c4.574,5.872,8.444,12.312,11.548,19.17C12.292-9.184,4.766-5.101,0,0"/>
		</g>
	</g>
</g>
</svg>
